# xmcd
#
# Track frame offsets: 
#        150
#        22370
#        41542
#        57549
#        72444
#        78428
#        96698
#        121725
#        137072
#        145232
#        152743
#        166197
#        181615
#
# Disc length: 2723 seconds
#
# Revision: 1
# Processed by: cddbd v1.5.2PL0 Copyright (c) Steve Scherf et al.
# Submitted via: ExactAudioCopyFreeDBPlugin 1.0
#
DISCID=b70aa10d
DTITLE=Yaron Herman - Everyday
DYEAR=2015
DGENRE=Jazz
TTITLE0=Fast Life
TTITLE1=Vista
TTITLE2=Points Of You
TTITLE3=Nettish
TTITLE4=With Open Hands
TTITLE5=Everyday
TTITLE6=Five Trees
TTITLE7=Volcano
TTITLE8=Scriabin: Prelude No4 Opus 74 5 Preludes, Op.74
TTITLE9=Children Don't Always Play Fair
TTITLE10=Retrograde
TTITLE11=City Lights
TTITLE12=18:26
EXTD=YEAR: 2015
EXTT0=
EXTT1=
EXTT2=
EXTT3=
EXTT4=
EXTT5=
EXTT6=
EXTT7=
EXTT8=
EXTT9=
EXTT10=
EXTT11=
EXTT12=
PLAYORDER=
